<?xml version="1.0" encoding="UTF-8" standalone="no"?>
<!DOCTYPE svg PUBLIC "-//W3C//DTD SVG 1.1//EN"
 "http://www.w3.org/Graphics/SVG/1.1/DTD/svg11.dtd">
<!-- Generated by graphviz version 13.0.1 (20250615.1724)
 -->
<!-- Title: WaterCycle Pages: 1 -->
<svg width="773pt" height="395pt"
 viewBox="0.00 0.00 773.00 395.00" xmlns="http://www.w3.org/2000/svg" xmlns:xlink="http://www.w3.org/1999/xlink">
<g id="graph0" class="graph" transform="scale(1 1) rotate(0) translate(4 390.81)">
<title>WaterCycle</title>
<polygon fill="white" stroke="none" points="-4,4 -4,-390.81 769.31,-390.81 769.31,4 -4,4"/>
<!-- 1 -->
<g id="node1" class="node">
<title>1</title>
<polygon fill="none" stroke="black" points="413.05,-134.05 331.05,-134.05 331.05,-98.05 413.05,-98.05 413.05,-134.05"/>
<text xml:space="preserve" text-anchor="middle" x="372.05" y="-111" font-family="Times,serif" font-size="14.00">Evaporation</text>
</g>
<!-- 3 -->
<g id="node3" class="node">
<title>3</title>
<polygon fill="none" stroke="black" points="602.88,-202.83 512.63,-202.83 512.63,-166.83 602.88,-166.83 602.88,-202.83"/>
<text xml:space="preserve" text-anchor="middle" x="557.76" y="-179.78" font-family="Times,serif" font-size="14.00">Condensation</text>
</g>
<!-- 1&#45;&gt;3 -->
<g id="edge1" class="edge">
<title>1&#45;&gt;3</title>
<path fill="none" stroke="black" d="M413.26,-131.31C439.32,-140.96 473.33,-153.56 501.81,-164.11"/>
<polygon fill="black" stroke="black" points="500.42,-167.32 511.01,-167.51 502.85,-160.76 500.42,-167.32"/>
</g>
<!-- 2 -->
<g id="node2" class="node">
<title>2</title>
<polygon fill="none" stroke="black" points="765.31,-309.78 676.56,-309.78 676.56,-273.78 765.31,-273.78 765.31,-309.78"/>
<text xml:space="preserve" text-anchor="middle" x="720.94" y="-286.73" font-family="Times,serif" font-size="14.00">Transpiration</text>
</g>
<!-- 2&#45;&gt;3 -->
<g id="edge2" class="edge">
<title>2&#45;&gt;3</title>
<path fill="none" stroke="black" d="M692.89,-273.4C665.95,-255.74 625.08,-228.95 595.34,-209.46"/>
<polygon fill="black" stroke="black" points="597.27,-206.54 586.98,-203.98 593.43,-212.39 597.27,-206.54"/>
</g>
<!-- 4 -->
<g id="node4" class="node">
<title>4</title>
<polygon fill="none" stroke="black" points="460.48,-343.79 375.48,-343.79 375.48,-307.79 460.48,-307.79 460.48,-343.79"/>
<text xml:space="preserve" text-anchor="middle" x="417.98" y="-320.74" font-family="Times,serif" font-size="14.00">Precipitation</text>
</g>
<!-- 3&#45;&gt;4 -->
<g id="edge3" class="edge">
<title>3&#45;&gt;4</title>
<path fill="none" stroke="black" d="M539.49,-203.26C515.21,-227.74 472.16,-271.16 444.36,-299.19"/>
<polygon fill="black" stroke="black" points="441.88,-296.72 437.33,-306.28 446.85,-301.65 441.88,-296.72"/>
</g>
<!-- 5 -->
<g id="node5" class="node">
<title>5</title>
<polygon fill="none" stroke="black" points="273.4,-273.75 201.15,-273.75 201.15,-237.75 273.4,-237.75 273.4,-273.75"/>
<text xml:space="preserve" text-anchor="middle" x="237.27" y="-250.7" font-family="Times,serif" font-size="14.00">Collection</text>
</g>
<!-- 4&#45;&gt;5 -->
<g id="edge4" class="edge">
<title>4&#45;&gt;5</title>
<path fill="none" stroke="black" d="M375.16,-309.19C347.76,-298.57 312.22,-284.8 284.08,-273.89"/>
<polygon fill="black" stroke="black" points="285.69,-270.76 275.1,-270.41 283.16,-277.29 285.69,-270.76"/>
</g>
<!-- 5&#45;&gt;1 -->
<g id="edge5" class="edge">
<title>5&#45;&gt;1</title>
<path fill="none" stroke="black" d="M254.89,-237.49C278.3,-213.22 319.81,-170.19 346.61,-142.41"/>
<polygon fill="black" stroke="black" points="348.95,-145.03 353.37,-135.4 343.91,-140.17 348.95,-145.03"/>
</g>
<!-- 6 -->
<g id="node6" class="node">
<title>6</title>
<polygon fill="none" stroke="black" points="128.77,-386.81 54.27,-386.81 54.27,-350.81 128.77,-350.81 128.77,-386.81"/>
<text xml:space="preserve" text-anchor="middle" x="91.52" y="-363.76" font-family="Times,serif" font-size="14.00">Infiltration</text>
</g>
<!-- 5&#45;&gt;6 -->
<g id="edge6" class="edge">
<title>5&#45;&gt;6</title>
<path fill="none" stroke="black" d="M213.53,-274.17C189.18,-293.05 151.13,-322.57 123.99,-343.62"/>
<polygon fill="black" stroke="black" points="122.2,-340.58 116.44,-349.47 126.49,-346.11 122.2,-340.58"/>
</g>
<!-- 7 -->
<g id="node7" class="node">
<title>7</title>
<polygon fill="none" stroke="black" points="118.75,-222.48 0,-222.48 0,-186.48 118.75,-186.48 118.75,-222.48"/>
<text xml:space="preserve" text-anchor="middle" x="59.38" y="-199.43" font-family="Times,serif" font-size="14.00">Groundwater Flow</text>
</g>
<!-- 6&#45;&gt;7 -->
<g id="edge7" class="edge">
<title>6&#45;&gt;7</title>
<path fill="none" stroke="black" d="M87.95,-350.6C82.43,-322.34 71.74,-267.67 65.11,-233.81"/>
<polygon fill="black" stroke="black" points="68.6,-233.4 63.24,-224.26 61.73,-234.74 68.6,-233.4"/>
</g>
<!-- 7&#45;&gt;5 -->
<g id="edge8" class="edge">
<title>7&#45;&gt;5</title>
<path fill="none" stroke="black" d="M119.11,-221.69C142.14,-228.33 168.12,-235.82 189.84,-242.08"/>
<polygon fill="black" stroke="black" points="188.74,-245.4 199.32,-244.81 190.68,-238.68 188.74,-245.4"/>
</g>
<!-- 8 -->
<g id="node8" class="node">
<title>8</title>
<polygon fill="none" stroke="black" points="700.83,-36 618.08,-36 618.08,0 700.83,0 700.83,-36"/>
<text xml:space="preserve" text-anchor="middle" x="659.46" y="-12.95" font-family="Times,serif" font-size="14.00">Sublimation</text>
</g>
<!-- 8&#45;&gt;3 -->
<g id="edge9" class="edge">
<title>8&#45;&gt;3</title>
<path fill="none" stroke="black" d="M648.19,-36.49C630.35,-65.75 595.5,-122.92 574.66,-157.1"/>
<polygon fill="black" stroke="black" points="571.93,-154.86 569.71,-165.22 577.91,-158.5 571.93,-154.86"/>
</g>
</g>
</svg>
